<?xml version="1.0" standalone="no"?>
<!DOCTYPE svg PUBLIC "-//W3C//DTD SVG 20010904//EN"
 "http://www.w3.org/TR/2001/REC-SVG-20010904/DTD/svg10.dtd">
<svg version="1.0" xmlns="http://www.w3.org/2000/svg"
 width="160.000000pt" height="160.000000pt" viewBox="0 0 160.000000 160.000000"
 preserveAspectRatio="xMidYMid meet">
<metadata>
Created by potrace 1.14, written by Peter Selinger 2001-2017
</metadata>
<g transform="translate(0.000000,160.000000) scale(0.100000,-0.100000)"
fill="#000000" stroke="none">
<path d="M0 800 l0 -800 800 0 800 0 0 800 0 800 -800 0 -800 0 0 -800z m587
279 c48 -23 60 -45 184 -327 48 -110 55 -121 64 -101 5 13 48 118 95 234 l85
210 93 3 c87 3 92 2 92 -18 0 -12 -7 -20 -18 -20 -10 0 -28 -7 -40 -16 -22
-15 -22 -19 -22 -253 0 -255 1 -261 52 -261 21 0 28 -5 28 -20 0 -20 -5 -20
-132 -18 -109 2 -133 6 -133 18 0 8 14 17 34 21 18 4 37 13 42 21 5 7 9 107 8
223 l0 210 -30 -75 c-154 -380 -172 -420 -189 -420 -14 0 -42 54 -120 233 -57
127 -107 239 -111 247 -6 9 -8 -71 -7 -196 3 -227 6 -240 56 -246 16 -2 28
-10 30 -21 3 -16 -5 -17 -105 -15 -88 2 -108 6 -108 18 0 9 12 17 30 20 50 9
55 32 55 271 0 234 -2 243 -55 257 -17 5 -31 16 -33 25 -5 26 99 23 155 -4z"/>
</g>
</svg>
